<svg xmlns="http://www.w3.org/2000/svg" xmlns:xlink="http://www.w3.org/1999/xlink" xmlns:svgjs="http://svgjs.com/svgjs" width="512" height="512" x="0" y="0" viewBox="0 0 64 64" style="enable-background:new 0 0 512 512" xml:space="preserve" class=""><g><g id="Infinity"><path d="m47.93 16.04a15.965 15.965 0 0 0 -12.24 5.59l-2.37 2.73 5.29 6.11 3.12-3.6a8.1 8.1 0 0 1 6.2-2.83 7.961 7.961 0 1 1 0 15.92 8.065 8.065 0 0 1 -6.18-2.82c-11.586-13.378-6.081-7-13.44-15.52a15.989 15.989 0 0 0 -12.24-5.58 15.96 15.96 0 1 0 0 31.92 15.965 15.965 0 0 0 12.24-5.59l2.37-2.73-5.29-6.11-3.12 3.6a8.1 8.1 0 0 1 -6.2 2.83 7.961 7.961 0 1 1 0-15.92 8.065 8.065 0 0 1 6.18 2.82c11.586 13.378 6.081 7 13.44 15.52a16.032 16.032 0 1 0 12.24-26.34z" fill="#e4c590" data-original="#000000"></path></g></g></svg>